<svg xmlns="http://www.w3.org/2000/svg" viewBox="0 0 640 230" width="100%" height="100%">
<rect width="640" height="230" fill="#000000"/>
<circle cx="5" cy="35" r="1.05" fill="#ffffff" opacity="1.0" />
<circle cx="15" cy="35" r="1.6" fill="#ffffff" opacity="1.0" />
<circle cx="25" cy="35" r="2.1500000000000004" fill="#ffffff" opacity="1.0" />
<circle cx="35" cy="35" r="2.1500000000000004" fill="#ffffff" opacity="1.0" />
<circle cx="45" cy="35" r="2.7" fill="#ffffff" opacity="1.0" />
<circle cx="55" cy="35" r="2.7" fill="#ffffff" opacity="1.0" />
<circle cx="65" cy="35" r="2.7" fill="#ffffff" opacity="1.0" />
<circle cx="75" cy="35" r="2.7" fill="#ffffff" opacity="1.0" />
<circle cx="85" cy="35" r="2.7" fill="#ffffff" opacity="1.0" />
<circle cx="95" cy="35" r="2.1500000000000004" fill="#ffffff" opacity="1.0" />
<circle cx="105" cy="35" r="2.1500000000000004" fill="#ffffff" opacity="1.0" />
<circle cx="115" cy="35" r="1.6" fill="#ffffff" opacity="1.0" />
<circle cx="125" cy="35" r="1.6" fill="#ffffff" opacity="1.0" />
<circle cx="135" cy="35" r="1.05" fill="#ffffff" opacity="1.0" />
<circle cx="145" cy="35" r="1.05" fill="#ffffff" opacity="1.0" />
<circle cx="5" cy="45" r="1.6" fill="#ffffff" opacity="1.0" />
<circle cx="15" cy="45" r="2.7" fill="#ffffff" opacity="1.0" />
<circle cx="25" cy="45" r="3.25" fill="#ffffff" opacity="1.0" />
<circle cx="35" cy="45" r="3.8000000000000003" fill="#ffffff" opacity="1.0" />
<circle cx="45" cy="45" r="4.3500000000000005" fill="#ffffff" opacity="1.0" />
<circle cx="55" cy="45" r="4.9" fill="#ffffff" opacity="1.0" />
<circle cx="65" cy="45" r="4.9" fill="#ffffff" opacity="1.0" />
<circle cx="75" cy="45" r="4.9" fill="#ffffff" opacity="1.0" />
<circle cx="85" cy="45" r="4.9" fill="#ffffff" opacity="1.0" />
<circle cx="95" cy="45" r="4.3500000000000005" fill="#ffffff" opacity="1.0" />
<circle cx="105" cy="45" r="3.8000000000000003" fill="#ffffff" opacity="1.0" />
<circle cx="115" cy="45" r="3.25" fill="#ffffff" opacity="1.0" />
<circle cx="125" cy="45" r="2.7" fill="#ffffff" opacity="1.0" />
<circle cx="135" cy="45" r="2.1500000000000004" fill="#ffffff" opacity="1.0" />
<circle cx="145" cy="45" r="1.6" fill="#ffffff" opacity="1.0" />
<circle cx="155" cy="45" r="1.05" fill="#ffffff" opacity="1.0" />
<circle cx="165" cy="45" r="1.05" fill="#ffffff" opacity="1.0" />
<circle cx="5" cy="55" r="1.6" fill="#ffffff" opacity="1.0" />
<circle cx="15" cy="55" r="2.7" fill="#ffffff" opacity="1.0" />
<circle cx="25" cy="55" r="3.8000000000000003" fill="#ffffff" opacity="1.0" />
<circle cx="35" cy="55" r="4.3500000000000005" fill="#ffffff" opacity="1.0" />
<circle cx="45" cy="55" r="5.45" fill="#ffffff" opacity="1.0" />
<circle cx="55" cy="55" r="5.45" fill="#ffffff" opacity="1.0" />
<circle cx="65" cy="55" r="5.45" fill="#ffffff" opacity="1.0" />
<circle cx="75" cy="55" r="5.45" fill="#ffffff" opacity="1.0" />
<circle cx="85" cy="55" r="5.45" fill="#ffffff" opacity="1.0" />
<circle cx="95" cy="55" r="5.45" fill="#ffffff" opacity="1.0" />
<circle cx="105" cy="55" r="4.9" fill="#ffffff" opacity="1.0" />
<circle cx="115" cy="55" r="4.3500000000000005" fill="#ffffff" opacity="1.0" />
<circle cx="125" cy="55" r="3.8000000000000003" fill="#ffffff" opacity="1.0" />
<circle cx="135" cy="55" r="3.25" fill="#ffffff" opacity="1.0" />
<circle cx="145" cy="55" r="2.7" fill="#ffffff" opacity="1.0" />
<circle cx="155" cy="55" r="2.1500000000000004" fill="#ffffff" opacity="1.0" />
<circle cx="165" cy="55" r="1.6" fill="#ffffff" opacity="1.0" />
<circle cx="175" cy="55" r="1.05" fill="#ffffff" opacity="1.0" />
<circle cx="5" cy="65" r="1.6" fill="#ffffff" opacity="1.0" />
<circle cx="15" cy="65" r="2.7" fill="#ffffff" opacity="1.0" />
<circle cx="25" cy="65" r="3.8000000000000003" fill="#ffffff" opacity="1.0" />
<circle cx="35" cy="65" r="4.9" fill="#ffffff" opacity="1.0" />
<circle cx="45" cy="65" r="5.45" fill="#ffffff" opacity="1.0" />
<circle cx="55" cy="65" r="5.45" fill="#ffffff" opacity="1.0" />
<circle cx="65" cy="65" r="5.45" fill="#ffffff" opacity="1.0" />
<circle cx="75" cy="65" r="5.45" fill="#ffffff" opacity="1.0" />
<circle cx="85" cy="65" r="5.45" fill="#ffffff" opacity="1.0" />
<circle cx="95" cy="65" r="5.45" fill="#ffffff" opacity="1.0" />
<circle cx="105" cy="65" r="5.45" fill="#ffffff" opacity="1.0" />
<circle cx="115" cy="65" r="4.9" fill="#ffffff" opacity="1.0" />
<circle cx="125" cy="65" r="4.3500000000000005" fill="#ffffff" opacity="1.0" />
<circle cx="135" cy="65" r="3.8000000000000003" fill="#ffffff" opacity="1.0" />
<circle cx="145" cy="65" r="3.25" fill="#ffffff" opacity="1.0" />
<circle cx="155" cy="65" r="2.7" fill="#ffffff" opacity="1.0" />
<circle cx="165" cy="65" r="2.1500000000000004" fill="#ffffff" opacity="1.0" />
<circle cx="175" cy="65" r="1.6" fill="#ffffff" opacity="1.0" />
<circle cx="185" cy="65" r="1.05" fill="#ffffff" opacity="1.0" />
<circle cx="5" cy="75" r="1.6" fill="#ffffff" opacity="1.0" />
<circle cx="15" cy="75" r="2.7" fill="#ffffff" opacity="1.0" />
<circle cx="25" cy="75" r="3.8000000000000003" fill="#ffffff" opacity="1.0" />
<circle cx="35" cy="75" r="4.3500000000000005" fill="#ffffff" opacity="1.0" />
<circle cx="45" cy="75" r="5.45" fill="#ffffff" opacity="1.0" />
<circle cx="55" cy="75" r="5.45" fill="#ffffff" opacity="1.0" />
<circle cx="65" cy="75" r="5.45" fill="#ffffff" opacity="1.0" />
<circle cx="75" cy="75" r="5.45" fill="#ffffff" opacity="1.0" />
<circle cx="85" cy="75" r="5.45" fill="#ffffff" opacity="1.0" />
<circle cx="95" cy="75" r="5.45" fill="#ffffff" opacity="1.0" />
<circle cx="105" cy="75" r="5.45" fill="#ffffff" opacity="1.0" />
<circle cx="115" cy="75" r="5.45" fill="#ffffff" opacity="1.0" />
<circle cx="125" cy="75" r="4.9" fill="#ffffff" opacity="1.0" />
<circle cx="135" cy="75" r="4.3500000000000005" fill="#ffffff" opacity="1.0" />
<circle cx="145" cy="75" r="3.8000000000000003" fill="#ffffff" opacity="1.0" />
<circle cx="155" cy="75" r="3.25" fill="#ffffff" opacity="1.0" />
<circle cx="165" cy="75" r="2.7" fill="#ffffff" opacity="1.0" />
<circle cx="175" cy="75" r="2.1500000000000004" fill="#ffffff" opacity="1.0" />
<circle cx="185" cy="75" r="1.6" fill="#ffffff" opacity="1.0" />
<circle cx="195" cy="75" r="1.05" fill="#ffffff" opacity="1.0" />
<circle cx="205" cy="75" r="1.05" fill="#ffffff" opacity="1.0" />
<circle cx="215" cy="75" r="1.05" fill="#ffffff" opacity="1.0" />
<circle cx="325" cy="75" r="1.05" fill="#ffffff" opacity="1.0" />
<circle cx="335" cy="75" r="1.05" fill="#ffffff" opacity="1.0" />
<circle cx="345" cy="75" r="1.05" fill="#ffffff" opacity="1.0" />
<circle cx="355" cy="75" r="1.05" fill="#ffffff" opacity="1.0" />
<circle cx="365" cy="75" r="1.05" fill="#ffffff" opacity="1.0" />
<circle cx="375" cy="75" r="1.05" fill="#ffffff" opacity="1.0" />
<circle cx="385" cy="75" r="1.05" fill="#ffffff" opacity="1.0" />
<circle cx="395" cy="75" r="1.05" fill="#ffffff" opacity="1.0" />
<circle cx="405" cy="75" r="1.05" fill="#ffffff" opacity="1.0" />
<circle cx="415" cy="75" r="1.05" fill="#ffffff" opacity="1.0" />
<circle cx="425" cy="75" r="1.05" fill="#ffffff" opacity="1.0" />
<circle cx="435" cy="75" r="1.05" fill="#ffffff" opacity="1.0" />
<circle cx="445" cy="75" r="1.05" fill="#ffffff" opacity="1.0" />
<circle cx="455" cy="75" r="1.05" fill="#ffffff" opacity="1.0" />
<circle cx="465" cy="75" r="1.05" fill="#ffffff" opacity="1.0" />
<circle cx="5" cy="85" r="1.05" fill="#ffffff" opacity="1.0" />
<circle cx="15" cy="85" r="2.1500000000000004" fill="#ffffff" opacity="1.0" />
<circle cx="25" cy="85" r="3.25" fill="#ffffff" opacity="1.0" />
<circle cx="35" cy="85" r="4.3500000000000005" fill="#ffffff" opacity="1.0" />
<circle cx="45" cy="85" r="5.45" fill="#ffffff" opacity="1.0" />
<circle cx="55" cy="85" r="5.45" fill="#ffffff" opacity="1.0" />
<circle cx="65" cy="85" r="5.45" fill="#ffffff" opacity="1.0" />
<circle cx="75" cy="85" r="5.45" fill="#ffffff" opacity="1.0" />
<circle cx="85" cy="85" r="5.45" fill="#ffffff" opacity="1.0" />
<circle cx="95" cy="85" r="5.45" fill="#ffffff" opacity="1.0" />
<circle cx="105" cy="85" r="5.45" fill="#ffffff" opacity="1.0" />
<circle cx="115" cy="85" r="5.45" fill="#ffffff" opacity="1.0" />
<circle cx="125" cy="85" r="5.45" fill="#ffffff" opacity="1.0" />
<circle cx="135" cy="85" r="4.9" fill="#ffffff" opacity="1.0" />
<circle cx="145" cy="85" r="4.3500000000000005" fill="#ffffff" opacity="1.0" />
<circle cx="155" cy="85" r="3.8000000000000003" fill="#ffffff" opacity="1.0" />
<circle cx="165" cy="85" r="3.25" fill="#ffffff" opacity="1.0" />
<circle cx="175" cy="85" r="2.7" fill="#ffffff" opacity="1.0" />
<circle cx="185" cy="85" r="2.1500000000000004" fill="#ffffff" opacity="1.0" />
<circle cx="195" cy="85" r="2.1500000000000004" fill="#ffffff" opacity="1.0" />
<circle cx="205" cy="85" r="1.6" fill="#ffffff" opacity="1.0" />
<circle cx="215" cy="85" r="1.6" fill="#ffffff" opacity="1.0" />
<circle cx="225" cy="85" r="1.6" fill="#ffffff" opacity="1.0" />
<circle cx="235" cy="85" r="1.6" fill="#ffffff" opacity="1.0" />
<circle cx="245" cy="85" r="1.6" fill="#ffffff" opacity="1.0" />
<circle cx="255" cy="85" r="2.1500000000000004" fill="#ffffff" opacity="1.0" />
<circle cx="265" cy="85" r="2.1500000000000004" fill="#ffffff" opacity="1.0" />
<circle cx="275" cy="85" r="2.1500000000000004" fill="#ffffff" opacity="1.0" />
<circle cx="285" cy="85" r="2.7" fill="#ffffff" opacity="1.0" />
<circle cx="295" cy="85" r="2.7" fill="#ffffff" opacity="1.0" />
<circle cx="305" cy="85" r="2.7" fill="#ffffff" opacity="1.0" />
<circle cx="315" cy="85" r="3.25" fill="#ffffff" opacity="1.0" />
<circle cx="325" cy="85" r="3.25" fill="#ffffff" opacity="1.0" />
<circle cx="335" cy="85" r="3.25" fill="#ffffff" opacity="1.0" />
<circle cx="345" cy="85" r="3.8000000000000003" fill="#ffffff" opacity="1.0" />
<circle cx="355" cy="85" r="3.8000000000000003" fill="#ffffff" opacity="1.0" />
<circle cx="365" cy="85" r="3.8000000000000003" fill="#ffffff" opacity="1.0" />
<circle cx="375" cy="85" r="4.3500000000000005" fill="#ffffff" opacity="1.0" />
<circle cx="385" cy="85" r="4.3500000000000005" fill="#ffffff" opacity="1.0" />
<circle cx="395" cy="85" r="4.3500000000000005" fill="#ffffff" opacity="1.0" />
<circle cx="405" cy="85" r="4.9" fill="#ffffff" opacity="1.0" />
<circle cx="415" cy="85" r="4.9" fill="#ffffff" opacity="1.0" />
<circle cx="425" cy="85" r="4.9" fill="#ffffff" opacity="1.0" />
<circle cx="435" cy="85" r="4.9" fill="#ffffff" opacity="1.0" />
<circle cx="445" cy="85" r="4.9" fill="#ffffff" opacity="1.0" />
<circle cx="455" cy="85" r="4.3500000000000005" fill="#ffffff" opacity="1.0" />
<circle cx="465" cy="85" r="4.3500000000000005" fill="#ffffff" opacity="1.0" />
<circle cx="475" cy="85" r="3.8000000000000003" fill="#ffffff" opacity="1.0" />
<circle cx="485" cy="85" r="3.8000000000000003" fill="#ffffff" opacity="1.0" />
<circle cx="495" cy="85" r="3.25" fill="#ffffff" opacity="1.0" />
<circle cx="505" cy="85" r="3.25" fill="#ffffff" opacity="1.0" />
<circle cx="515" cy="85" r="2.7" fill="#ffffff" opacity="1.0" />
<circle cx="525" cy="85" r="2.7" fill="#ffffff" opacity="1.0" />
<circle cx="535" cy="85" r="2.1500000000000004" fill="#ffffff" opacity="1.0" />
<circle cx="545" cy="85" r="2.1500000000000004" fill="#ffffff" opacity="1.0" />
<circle cx="555" cy="85" r="1.6" fill="#ffffff" opacity="1.0" />
<circle cx="565" cy="85" r="1.6" fill="#ffffff" opacity="1.0" />
<circle cx="575" cy="85" r="1.05" fill="#ffffff" opacity="1.0" />
<circle cx="585" cy="85" r="1.05" fill="#ffffff" opacity="1.0" />
<circle cx="595" cy="85" r="1.05" fill="#ffffff" opacity="1.0" />
<circle cx="15" cy="95" r="1.05" fill="#ffffff" opacity="1.0" />
<circle cx="25" cy="95" r="1.6" fill="#ffffff" opacity="1.0" />
<circle cx="35" cy="95" r="2.7" fill="#ffffff" opacity="1.0" />
<circle cx="45" cy="95" r="3.8000000000000003" fill="#ffffff" opacity="1.0" />
<circle cx="55" cy="95" r="4.9" fill="#ffffff" opacity="1.0" />
<circle cx="65" cy="95" r="5.45" fill="#ffffff" opacity="1.0" />
<circle cx="75" cy="95" r="5.45" fill="#ffffff" opacity="1.0" />
<circle cx="85" cy="95" r="5.45" fill="#ffffff" opacity="1.0" />
<circle cx="95" cy="95" r="5.45" fill="#ffffff" opacity="1.0" />
<circle cx="105" cy="95" r="5.45" fill="#ffffff" opacity="1.0" />
<circle cx="115" cy="95" r="5.45" fill="#ffffff" opacity="1.0" />
<circle cx="125" cy="95" r="5.45" fill="#ffffff" opacity="1.0" />
<circle cx="135" cy="95" r="5.45" fill="#ffffff" opacity="1.0" />
<circle cx="145" cy="95" r="4.9" fill="#ffffff" opacity="1.0" />
<circle cx="155" cy="95" r="4.9" fill="#ffffff" opacity="1.0" />
<circle cx="165" cy="95" r="4.3500000000000005" fill="#ffffff" opacity="1.0" />
<circle cx="175" cy="95" r="3.8000000000000003" fill="#ffffff" opacity="1.0" />
<circle cx="185" cy="95" r="3.25" fill="#ffffff" opacity="1.0" />
<circle cx="195" cy="95" r="2.7" fill="#ffffff" opacity="1.0" />
<circle cx="205" cy="95" r="2.7" fill="#ffffff" opacity="1.0" />
<circle cx="215" cy="95" r="2.7" fill="#ffffff" opacity="1.0" />
<circle cx="225" cy="95" r="3.25" fill="#ffffff" opacity="1.0" />
<circle cx="235" cy="95" r="3.25" fill="#ffffff" opacity="1.0" />
<circle cx="245" cy="95" r="3.8000000000000003" fill="#ffffff" opacity="1.0" />
<circle cx="255" cy="95" r="3.8000000000000003" fill="#ffffff" opacity="1.0" />
<circle cx="265" cy="95" r="4.3500000000000005" fill="#ffffff" opacity="1.0" />
<circle cx="275" cy="95" r="4.3500000000000005" fill="#ffffff" opacity="1.0" />
<circle cx="285" cy="95" r="4.9" fill="#ffffff" opacity="1.0" />
<circle cx="295" cy="95" r="4.9" fill="#ffffff" opacity="1.0" />
<circle cx="305" cy="95" r="5.45" fill="#ffffff" opacity="1.0" />
<circle cx="315" cy="95" r="5.45" fill="#ffffff" opacity="1.0" />
<circle cx="325" cy="95" r="5.45" fill="#ffffff" opacity="1.0" />
<circle cx="335" cy="95" r="5.45" fill="#ffffff" opacity="1.0" />
<circle cx="345" cy="95" r="5.45" fill="#ffffff" opacity="1.0" />
<circle cx="355" cy="95" r="5.45" fill="#ffffff" opacity="1.0" />
<circle cx="365" cy="95" r="5.45" fill="#ffffff" opacity="1.0" />
<circle cx="375" cy="95" r="5.45" fill="#ffffff" opacity="1.0" />
<circle cx="385" cy="95" r="5.45" fill="#ffffff" opacity="1.0" />
<circle cx="395" cy="95" r="5.45" fill="#ffffff" opacity="1.0" />
<circle cx="405" cy="95" r="5.45" fill="#ffffff" opacity="1.0" />
<circle cx="415" cy="95" r="5.45" fill="#ffffff" opacity="1.0" />
<circle cx="425" cy="95" r="5.45" fill="#ffffff" opacity="1.0" />
<circle cx="435" cy="95" r="5.45" fill="#ffffff" opacity="1.0" />
<circle cx="445" cy="95" r="5.45" fill="#ffffff" opacity="1.0" />
<circle cx="455" cy="95" r="5.45" fill="#ffffff" opacity="1.0" />
<circle cx="465" cy="95" r="5.45" fill="#ffffff" opacity="1.0" />
<circle cx="475" cy="95" r="5.45" fill="#ffffff" opacity="1.0" />
<circle cx="485" cy="95" r="4.9" fill="#ffffff" opacity="1.0" />
<circle cx="495" cy="95" r="4.9" fill="#ffffff" opacity="1.0" />
<circle cx="505" cy="95" r="4.3500000000000005" fill="#ffffff" opacity="1.0" />
<circle cx="515" cy="95" r="4.3500000000000005" fill="#ffffff" opacity="1.0" />
<circle cx="525" cy="95" r="3.8000000000000003" fill="#ffffff" opacity="1.0" />
<circle cx="535" cy="95" r="3.8000000000000003" fill="#ffffff" opacity="1.0" />
<circle cx="545" cy="95" r="3.25" fill="#ffffff" opacity="1.0" />
<circle cx="555" cy="95" r="3.25" fill="#ffffff" opacity="1.0" />
<circle cx="565" cy="95" r="2.7" fill="#ffffff" opacity="1.0" />
<circle cx="575" cy="95" r="2.7" fill="#ffffff" opacity="1.0" />
<circle cx="585" cy="95" r="2.1500000000000004" fill="#ffffff" opacity="1.0" />
<circle cx="595" cy="95" r="2.1500000000000004" fill="#ffffff" opacity="1.0" />
<circle cx="605" cy="95" r="1.6" fill="#ffffff" opacity="1.0" />
<circle cx="615" cy="95" r="1.05" fill="#ffffff" opacity="1.0" />
<circle cx="25" cy="105" r="1.05" fill="#ffffff" opacity="1.0" />
<circle cx="35" cy="105" r="1.6" fill="#ffffff" opacity="1.0" />
<circle cx="45" cy="105" r="2.7" fill="#ffffff" opacity="1.0" />
<circle cx="55" cy="105" r="3.8000000000000003" fill="#ffffff" opacity="1.0" />
<circle cx="65" cy="105" r="4.3500000000000005" fill="#ffffff" opacity="1.0" />
<circle cx="75" cy="105" r="5.45" fill="#ffffff" opacity="1.0" />
<circle cx="85" cy="105" r="5.45" fill="#ffffff" opacity="1.0" />
<circle cx="95" cy="105" r="5.45" fill="#ffffff" opacity="1.0" />
<circle cx="105" cy="105" r="5.45" fill="#ffffff" opacity="1.0" />
<circle cx="115" cy="105" r="5.45" fill="#ffffff" opacity="1.0" />
<circle cx="125" cy="105" r="5.45" fill="#ffffff" opacity="1.0" />
<circle cx="135" cy="105" r="5.45" fill="#ffffff" opacity="1.0" />
<circle cx="145" cy="105" r="5.45" fill="#ffffff" opacity="1.0" />
<circle cx="155" cy="105" r="4.9" fill="#ffffff" opacity="1.0" />
<circle cx="165" cy="105" r="4.9" fill="#ffffff" opacity="1.0" />
<circle cx="175" cy="105" r="4.3500000000000005" fill="#ffffff" opacity="1.0" />
<circle cx="185" cy="105" r="3.8000000000000003" fill="#ffffff" opacity="1.0" />
<circle cx="195" cy="105" r="3.25" fill="#ffffff" opacity="1.0" />
<circle cx="205" cy="105" r="3.25" fill="#ffffff" opacity="1.0" />
<circle cx="215" cy="105" r="3.8000000000000003" fill="#ffffff" opacity="1.0" />
<circle cx="225" cy="105" r="4.3500000000000005" fill="#ffffff" opacity="1.0" />
<circle cx="235" cy="105" r="4.9" fill="#ffffff" opacity="1.0" />
<circle cx="245" cy="105" r="5.45" fill="#ffffff" opacity="1.0" />
<circle cx="255" cy="105" r="5.45" fill="#ffffff" opacity="1.0" />
<circle cx="265" cy="105" r="5.45" fill="#ffffff" opacity="1.0" />
<circle cx="275" cy="105" r="5.45" fill="#ffffff" opacity="1.0" />
<circle cx="285" cy="105" r="5.45" fill="#ffffff" opacity="1.0" />
<circle cx="295" cy="105" r="5.45" fill="#ffffff" opacity="1.0" />
<circle cx="305" cy="105" r="5.45" fill="#ffffff" opacity="1.0" />
<circle cx="315" cy="105" r="5.45" fill="#ffffff" opacity="1.0" />
<circle cx="325" cy="105" r="5.45" fill="#ffffff" opacity="1.0" />
<circle cx="335" cy="105" r="5.45" fill="#ffffff" opacity="1.0" />
<circle cx="345" cy="105" r="4.9" fill="#ffffff" opacity="1.0" />
<circle cx="355" cy="105" r="4.9" fill="#ffffff" opacity="1.0" />
<circle cx="365" cy="105" r="4.9" fill="#ffffff" opacity="1.0" />
<circle cx="375" cy="105" r="4.9" fill="#ffffff" opacity="1.0" />
<circle cx="385" cy="105" r="4.3500000000000005" fill="#ffffff" opacity="1.0" />
<circle cx="395" cy="105" r="4.3500000000000005" fill="#ffffff" opacity="1.0" />
<circle cx="405" cy="105" r="4.3500000000000005" fill="#ffffff" opacity="1.0" />
<circle cx="415" cy="105" r="4.3500000000000005" fill="#ffffff" opacity="1.0" />
<circle cx="425" cy="105" r="4.3500000000000005" fill="#ffffff" opacity="1.0" />
<circle cx="435" cy="105" r="4.3500000000000005" fill="#ffffff" opacity="1.0" />
<circle cx="445" cy="105" r="4.3500000000000005" fill="#ffffff" opacity="1.0" />
<circle cx="455" cy="105" r="4.3500000000000005" fill="#ffffff" opacity="1.0" />
<circle cx="465" cy="105" r="4.3500000000000005" fill="#ffffff" opacity="1.0" />
<circle cx="475" cy="105" r="3.8000000000000003" fill="#ffffff" opacity="1.0" />
<circle cx="485" cy="105" r="3.8000000000000003" fill="#ffffff" opacity="1.0" />
<circle cx="495" cy="105" r="3.8000000000000003" fill="#ffffff" opacity="1.0" />
<circle cx="505" cy="105" r="3.25" fill="#ffffff" opacity="1.0" />
<circle cx="515" cy="105" r="3.25" fill="#ffffff" opacity="1.0" />
<circle cx="525" cy="105" r="2.7" fill="#ffffff" opacity="1.0" />
<circle cx="535" cy="105" r="2.7" fill="#ffffff" opacity="1.0" />
<circle cx="545" cy="105" r="2.7" fill="#ffffff" opacity="1.0" />
<circle cx="555" cy="105" r="2.1500000000000004" fill="#ffffff" opacity="1.0" />
<circle cx="565" cy="105" r="2.1500000000000004" fill="#ffffff" opacity="1.0" />
<circle cx="575" cy="105" r="2.1500000000000004" fill="#ffffff" opacity="1.0" />
<circle cx="585" cy="105" r="1.6" fill="#ffffff" opacity="1.0" />
<circle cx="595" cy="105" r="1.6" fill="#ffffff" opacity="1.0" />
<circle cx="605" cy="105" r="1.05" fill="#ffffff" opacity="1.0" />
<circle cx="35" cy="115" r="1.05" fill="#ffffff" opacity="1.0" />
<circle cx="45" cy="115" r="1.6" fill="#ffffff" opacity="1.0" />
<circle cx="55" cy="115" r="2.1500000000000004" fill="#ffffff" opacity="1.0" />
<circle cx="65" cy="115" r="3.25" fill="#ffffff" opacity="1.0" />
<circle cx="75" cy="115" r="3.8000000000000003" fill="#ffffff" opacity="1.0" />
<circle cx="85" cy="115" r="4.9" fill="#ffffff" opacity="1.0" />
<circle cx="95" cy="115" r="5.45" fill="#ffffff" opacity="1.0" />
<circle cx="105" cy="115" r="5.45" fill="#ffffff" opacity="1.0" />
<circle cx="115" cy="115" r="5.45" fill="#ffffff" opacity="1.0" />
<circle cx="125" cy="115" r="5.45" fill="#ffffff" opacity="1.0" />
<circle cx="135" cy="115" r="5.45" fill="#ffffff" opacity="1.0" />
<circle cx="145" cy="115" r="5.45" fill="#ffffff" opacity="1.0" />
<circle cx="155" cy="115" r="5.45" fill="#ffffff" opacity="1.0" />
<circle cx="165" cy="115" r="4.9" fill="#ffffff" opacity="1.0" />
<circle cx="175" cy="115" r="4.9" fill="#ffffff" opacity="1.0" />
<circle cx="185" cy="115" r="4.3500000000000005" fill="#ffffff" opacity="1.0" />
<circle cx="195" cy="115" r="4.3500000000000005" fill="#ffffff" opacity="1.0" />
<circle cx="205" cy="115" r="4.9" fill="#ffffff" opacity="1.0" />
<circle cx="215" cy="115" r="5.45" fill="#ffffff" opacity="1.0" />
<circle cx="225" cy="115" r="5.45" fill="#ffffff" opacity="1.0" />
<circle cx="235" cy="115" r="5.45" fill="#ffffff" opacity="1.0" />
<circle cx="245" cy="115" r="5.45" fill="#ffffff" opacity="1.0" />
<circle cx="255" cy="115" r="5.45" fill="#ffffff" opacity="1.0" />
<circle cx="265" cy="115" r="4.9" fill="#ffffff" opacity="1.0" />
<circle cx="275" cy="115" r="4.9" fill="#ffffff" opacity="1.0" />
<circle cx="285" cy="115" r="4.3500000000000005" fill="#ffffff" opacity="1.0" />
<circle cx="295" cy="115" r="4.3500000000000005" fill="#ffffff" opacity="1.0" />
<circle cx="305" cy="115" r="3.8000000000000003" fill="#ffffff" opacity="1.0" />
<circle cx="315" cy="115" r="3.8000000000000003" fill="#ffffff" opacity="1.0" />
<circle cx="325" cy="115" r="3.25" fill="#ffffff" opacity="1.0" />
<circle cx="335" cy="115" r="3.25" fill="#ffffff" opacity="1.0" />
<circle cx="345" cy="115" r="2.7" fill="#ffffff" opacity="1.0" />
<circle cx="355" cy="115" r="2.7" fill="#ffffff" opacity="1.0" />
<circle cx="365" cy="115" r="2.1500000000000004" fill="#ffffff" opacity="1.0" />
<circle cx="375" cy="115" r="2.1500000000000004" fill="#ffffff" opacity="1.0" />
<circle cx="385" cy="115" r="1.6" fill="#ffffff" opacity="1.0" />
<circle cx="395" cy="115" r="1.6" fill="#ffffff" opacity="1.0" />
<circle cx="405" cy="115" r="1.6" fill="#ffffff" opacity="1.0" />
<circle cx="415" cy="115" r="1.05" fill="#ffffff" opacity="1.0" />
<circle cx="425" cy="115" r="1.05" fill="#ffffff" opacity="1.0" />
<circle cx="435" cy="115" r="1.05" fill="#ffffff" opacity="1.0" />
<circle cx="445" cy="115" r="1.05" fill="#ffffff" opacity="1.0" />
<circle cx="455" cy="115" r="1.05" fill="#ffffff" opacity="1.0" />
<circle cx="465" cy="115" r="1.05" fill="#ffffff" opacity="1.0" />
<circle cx="475" cy="115" r="1.05" fill="#ffffff" opacity="1.0" />
<circle cx="485" cy="115" r="1.05" fill="#ffffff" opacity="1.0" />
<circle cx="495" cy="115" r="1.05" fill="#ffffff" opacity="1.0" />
<circle cx="505" cy="115" r="1.05" fill="#ffffff" opacity="1.0" />
<circle cx="515" cy="115" r="1.05" fill="#ffffff" opacity="1.0" />
<circle cx="525" cy="115" r="1.05" fill="#ffffff" opacity="1.0" />
<circle cx="535" cy="115" r="1.05" fill="#ffffff" opacity="1.0" />
<circle cx="545" cy="115" r="1.05" fill="#ffffff" opacity="1.0" />
<circle cx="55" cy="125" r="1.05" fill="#ffffff" opacity="1.0" />
<circle cx="65" cy="125" r="1.6" fill="#ffffff" opacity="1.0" />
<circle cx="75" cy="125" r="2.7" fill="#ffffff" opacity="1.0" />
<circle cx="85" cy="125" r="3.25" fill="#ffffff" opacity="1.0" />
<circle cx="95" cy="125" r="4.3500000000000005" fill="#ffffff" opacity="1.0" />
<circle cx="105" cy="125" r="4.9" fill="#ffffff" opacity="1.0" />
<circle cx="115" cy="125" r="5.45" fill="#ffffff" opacity="1.0" />
<circle cx="125" cy="125" r="5.45" fill="#ffffff" opacity="1.0" />
<circle cx="135" cy="125" r="5.45" fill="#ffffff" opacity="1.0" />
<circle cx="145" cy="125" r="5.45" fill="#ffffff" opacity="1.0" />
<circle cx="155" cy="125" r="5.45" fill="#ffffff" opacity="1.0" />
<circle cx="165" cy="125" r="5.45" fill="#ffffff" opacity="1.0" />
<circle cx="175" cy="125" r="5.45" fill="#ffffff" opacity="1.0" />
<circle cx="185" cy="125" r="5.45" fill="#ffffff" opacity="1.0" />
<circle cx="195" cy="125" r="5.45" fill="#ffffff" opacity="1.0" />
<circle cx="205" cy="125" r="5.45" fill="#ffffff" opacity="1.0" />
<circle cx="215" cy="125" r="5.45" fill="#ffffff" opacity="1.0" />
<circle cx="225" cy="125" r="5.45" fill="#ffffff" opacity="1.0" />
<circle cx="235" cy="125" r="4.9" fill="#ffffff" opacity="1.0" />
<circle cx="245" cy="125" r="4.3500000000000005" fill="#ffffff" opacity="1.0" />
<circle cx="255" cy="125" r="3.8000000000000003" fill="#ffffff" opacity="1.0" />
<circle cx="265" cy="125" r="3.25" fill="#ffffff" opacity="1.0" />
<circle cx="275" cy="125" r="2.7" fill="#ffffff" opacity="1.0" />
<circle cx="285" cy="125" r="2.1500000000000004" fill="#ffffff" opacity="1.0" />
<circle cx="295" cy="125" r="1.6" fill="#ffffff" opacity="1.0" />
<circle cx="305" cy="125" r="1.05" fill="#ffffff" opacity="1.0" />
<circle cx="315" cy="125" r="1.05" fill="#ffffff" opacity="1.0" />
<circle cx="75" cy="135" r="1.05" fill="#ffffff" opacity="1.0" />
<circle cx="85" cy="135" r="1.6" fill="#ffffff" opacity="1.0" />
<circle cx="95" cy="135" r="2.1500000000000004" fill="#ffffff" opacity="1.0" />
<circle cx="105" cy="135" r="3.25" fill="#ffffff" opacity="1.0" />
<circle cx="115" cy="135" r="3.8000000000000003" fill="#ffffff" opacity="1.0" />
<circle cx="125" cy="135" r="4.9" fill="#ffffff" opacity="1.0" />
<circle cx="135" cy="135" r="5.45" fill="#ffffff" opacity="1.0" />
<circle cx="145" cy="135" r="5.45" fill="#ffffff" opacity="1.0" />
<circle cx="155" cy="135" r="5.45" fill="#ffffff" opacity="1.0" />
<circle cx="165" cy="135" r="5.45" fill="#ffffff" opacity="1.0" />
<circle cx="175" cy="135" r="5.45" fill="#ffffff" opacity="1.0" />
<circle cx="185" cy="135" r="5.45" fill="#ffffff" opacity="1.0" />
<circle cx="195" cy="135" r="5.45" fill="#ffffff" opacity="1.0" />
<circle cx="205" cy="135" r="5.45" fill="#ffffff" opacity="1.0" />
<circle cx="215" cy="135" r="4.9" fill="#ffffff" opacity="1.0" />
<circle cx="225" cy="135" r="4.3500000000000005" fill="#ffffff" opacity="1.0" />
<circle cx="235" cy="135" r="3.8000000000000003" fill="#ffffff" opacity="1.0" />
<circle cx="245" cy="135" r="3.25" fill="#ffffff" opacity="1.0" />
<circle cx="255" cy="135" r="2.7" fill="#ffffff" opacity="1.0" />
<circle cx="265" cy="135" r="2.1500000000000004" fill="#ffffff" opacity="1.0" />
<circle cx="275" cy="135" r="1.6" fill="#ffffff" opacity="1.0" />
<circle cx="285" cy="135" r="1.05" fill="#ffffff" opacity="1.0" />
<circle cx="365" cy="135" r="1.05" fill="#ffffff" opacity="1.0" />
<circle cx="375" cy="135" r="1.6" fill="#ffffff" opacity="1.0" />
<circle cx="385" cy="135" r="1.6" fill="#ffffff" opacity="1.0" />
<circle cx="395" cy="135" r="2.1500000000000004" fill="#ffffff" opacity="1.0" />
<circle cx="405" cy="135" r="2.7" fill="#ffffff" opacity="1.0" />
<circle cx="415" cy="135" r="2.7" fill="#ffffff" opacity="1.0" />
<circle cx="425" cy="135" r="3.25" fill="#ffffff" opacity="1.0" />
<circle cx="435" cy="135" r="3.25" fill="#ffffff" opacity="1.0" />
<circle cx="445" cy="135" r="3.8000000000000003" fill="#ffffff" opacity="1.0" />
<circle cx="455" cy="135" r="3.25" fill="#ffffff" opacity="1.0" />
<circle cx="465" cy="135" r="2.7" fill="#ffffff" opacity="1.0" />
<circle cx="475" cy="135" r="2.1500000000000004" fill="#ffffff" opacity="1.0" />
<circle cx="485" cy="135" r="1.6" fill="#ffffff" opacity="1.0" />
<circle cx="495" cy="135" r="1.05" fill="#ffffff" opacity="1.0" />
<circle cx="95" cy="145" r="1.05" fill="#ffffff" opacity="1.0" />
<circle cx="105" cy="145" r="1.6" fill="#ffffff" opacity="1.0" />
<circle cx="115" cy="145" r="2.7" fill="#ffffff" opacity="1.0" />
<circle cx="125" cy="145" r="3.25" fill="#ffffff" opacity="1.0" />
<circle cx="135" cy="145" r="4.3500000000000005" fill="#ffffff" opacity="1.0" />
<circle cx="145" cy="145" r="4.9" fill="#ffffff" opacity="1.0" />
<circle cx="155" cy="145" r="5.45" fill="#ffffff" opacity="1.0" />
<circle cx="165" cy="145" r="5.45" fill="#ffffff" opacity="1.0" />
<circle cx="175" cy="145" r="5.45" fill="#ffffff" opacity="1.0" />
<circle cx="185" cy="145" r="5.45" fill="#ffffff" opacity="1.0" />
<circle cx="195" cy="145" r="5.45" fill="#ffffff" opacity="1.0" />
<circle cx="205" cy="145" r="4.9" fill="#ffffff" opacity="1.0" />
<circle cx="215" cy="145" r="4.3500000000000005" fill="#ffffff" opacity="1.0" />
<circle cx="225" cy="145" r="3.8000000000000003" fill="#ffffff" opacity="1.0" />
<circle cx="235" cy="145" r="3.25" fill="#ffffff" opacity="1.0" />
<circle cx="245" cy="145" r="2.7" fill="#ffffff" opacity="1.0" />
<circle cx="255" cy="145" r="1.6" fill="#ffffff" opacity="1.0" />
<circle cx="265" cy="145" r="1.05" fill="#ffffff" opacity="1.0" />
<circle cx="355" cy="145" r="1.05" fill="#ffffff" opacity="1.0" />
<circle cx="365" cy="145" r="2.1500000000000004" fill="#ffffff" opacity="1.0" />
<circle cx="375" cy="145" r="3.25" fill="#ffffff" opacity="1.0" />
<circle cx="385" cy="145" r="3.8000000000000003" fill="#ffffff" opacity="1.0" />
<circle cx="395" cy="145" r="4.3500000000000005" fill="#ffffff" opacity="1.0" />
<circle cx="405" cy="145" r="4.9" fill="#ffffff" opacity="1.0" />
<circle cx="415" cy="145" r="4.9" fill="#ffffff" opacity="1.0" />
<circle cx="425" cy="145" r="4.9" fill="#ffffff" opacity="1.0" />
<circle cx="435" cy="145" r="4.9" fill="#ffffff" opacity="1.0" />
<circle cx="445" cy="145" r="4.3500000000000005" fill="#ffffff" opacity="1.0" />
<circle cx="455" cy="145" r="3.8000000000000003" fill="#ffffff" opacity="1.0" />
<circle cx="465" cy="145" r="3.25" fill="#ffffff" opacity="1.0" />
<circle cx="475" cy="145" r="2.7" fill="#ffffff" opacity="1.0" />
<circle cx="485" cy="145" r="1.6" fill="#ffffff" opacity="1.0" />
<circle cx="495" cy="145" r="1.05" fill="#ffffff" opacity="1.0" />
<circle cx="115" cy="155" r="1.05" fill="#ffffff" opacity="1.0" />
<circle cx="125" cy="155" r="1.6" fill="#ffffff" opacity="1.0" />
<circle cx="135" cy="155" r="2.1500000000000004" fill="#ffffff" opacity="1.0" />
<circle cx="145" cy="155" r="3.25" fill="#ffffff" opacity="1.0" />
<circle cx="155" cy="155" r="3.8000000000000003" fill="#ffffff" opacity="1.0" />
<circle cx="165" cy="155" r="4.9" fill="#ffffff" opacity="1.0" />
<circle cx="175" cy="155" r="5.45" fill="#ffffff" opacity="1.0" />
<circle cx="185" cy="155" r="5.45" fill="#ffffff" opacity="1.0" />
<circle cx="195" cy="155" r="4.9" fill="#ffffff" opacity="1.0" />
<circle cx="205" cy="155" r="4.3500000000000005" fill="#ffffff" opacity="1.0" />
<circle cx="215" cy="155" r="3.25" fill="#ffffff" opacity="1.0" />
<circle cx="225" cy="155" r="2.7" fill="#ffffff" opacity="1.0" />
<circle cx="235" cy="155" r="1.6" fill="#ffffff" opacity="1.0" />
<circle cx="245" cy="155" r="1.05" fill="#ffffff" opacity="1.0" />
<circle cx="345" cy="155" r="1.05" fill="#ffffff" opacity="1.0" />
<circle cx="355" cy="155" r="2.1500000000000004" fill="#ffffff" opacity="1.0" />
<circle cx="365" cy="155" r="3.25" fill="#ffffff" opacity="1.0" />
<circle cx="375" cy="155" r="4.3500000000000005" fill="#ffffff" opacity="1.0" />
<circle cx="385" cy="155" r="5.45" fill="#ffffff" opacity="1.0" />
<circle cx="395" cy="155" r="5.45" fill="#ffffff" opacity="1.0" />
<circle cx="405" cy="155" r="4.9" fill="#ffffff" opacity="1.0" />
<circle cx="415" cy="155" r="4.3500000000000005" fill="#ffffff" opacity="1.0" />
<circle cx="425" cy="155" r="3.8000000000000003" fill="#ffffff" opacity="1.0" />
<circle cx="435" cy="155" r="3.25" fill="#ffffff" opacity="1.0" />
<circle cx="445" cy="155" r="2.7" fill="#ffffff" opacity="1.0" />
<circle cx="455" cy="155" r="2.1500000000000004" fill="#ffffff" opacity="1.0" />
<circle cx="465" cy="155" r="1.6" fill="#ffffff" opacity="1.0" />
<circle cx="475" cy="155" r="1.05" fill="#ffffff" opacity="1.0" />
<circle cx="135" cy="165" r="1.05" fill="#ffffff" opacity="1.0" />
<circle cx="145" cy="165" r="1.6" fill="#ffffff" opacity="1.0" />
<circle cx="155" cy="165" r="2.1500000000000004" fill="#ffffff" opacity="1.0" />
<circle cx="165" cy="165" r="3.25" fill="#ffffff" opacity="1.0" />
<circle cx="175" cy="165" r="3.8000000000000003" fill="#ffffff" opacity="1.0" />
<circle cx="185" cy="165" r="4.9" fill="#ffffff" opacity="1.0" />
<circle cx="195" cy="165" r="4.3500000000000005" fill="#ffffff" opacity="1.0" />
<circle cx="205" cy="165" r="3.25" fill="#ffffff" opacity="1.0" />
<circle cx="215" cy="165" r="2.1500000000000004" fill="#ffffff" opacity="1.0" />
<circle cx="225" cy="165" r="1.05" fill="#ffffff" opacity="1.0" />
<circle cx="335" cy="165" r="1.05" fill="#ffffff" opacity="1.0" />
<circle cx="345" cy="165" r="1.6" fill="#ffffff" opacity="1.0" />
<circle cx="355" cy="165" r="2.7" fill="#ffffff" opacity="1.0" />
<circle cx="365" cy="165" r="3.8000000000000003" fill="#ffffff" opacity="1.0" />
<circle cx="375" cy="165" r="4.9" fill="#ffffff" opacity="1.0" />
<circle cx="385" cy="165" r="5.45" fill="#ffffff" opacity="1.0" />
<circle cx="395" cy="165" r="4.3500000000000005" fill="#ffffff" opacity="1.0" />
<circle cx="405" cy="165" r="3.25" fill="#ffffff" opacity="1.0" />
<circle cx="415" cy="165" r="2.1500000000000004" fill="#ffffff" opacity="1.0" />
<circle cx="425" cy="165" r="1.6" fill="#ffffff" opacity="1.0" />
<circle cx="435" cy="165" r="1.05" fill="#ffffff" opacity="1.0" />
<circle cx="155" cy="175" r="1.05" fill="#ffffff" opacity="1.0" />
<circle cx="165" cy="175" r="1.6" fill="#ffffff" opacity="1.0" />
<circle cx="175" cy="175" r="2.1500000000000004" fill="#ffffff" opacity="1.0" />
<circle cx="185" cy="175" r="3.25" fill="#ffffff" opacity="1.0" />
<circle cx="195" cy="175" r="2.7" fill="#ffffff" opacity="1.0" />
<circle cx="205" cy="175" r="1.6" fill="#ffffff" opacity="1.0" />
<circle cx="325" cy="175" r="1.05" fill="#ffffff" opacity="1.0" />
<circle cx="335" cy="175" r="1.6" fill="#ffffff" opacity="1.0" />
<circle cx="345" cy="175" r="2.7" fill="#ffffff" opacity="1.0" />
<circle cx="355" cy="175" r="3.8000000000000003" fill="#ffffff" opacity="1.0" />
<circle cx="365" cy="175" r="4.9" fill="#ffffff" opacity="1.0" />
<circle cx="375" cy="175" r="4.3500000000000005" fill="#ffffff" opacity="1.0" />
<circle cx="385" cy="175" r="3.25" fill="#ffffff" opacity="1.0" />
<circle cx="395" cy="175" r="2.1500000000000004" fill="#ffffff" opacity="1.0" />
<circle cx="405" cy="175" r="1.05" fill="#ffffff" opacity="1.0" />
<circle cx="175" cy="185" r="1.05" fill="#ffffff" opacity="1.0" />
<circle cx="185" cy="185" r="1.6" fill="#ffffff" opacity="1.0" />
<circle cx="195" cy="185" r="1.05" fill="#ffffff" opacity="1.0" />
<circle cx="315" cy="185" r="1.05" fill="#ffffff" opacity="1.0" />
<circle cx="325" cy="185" r="1.6" fill="#ffffff" opacity="1.0" />
<circle cx="335" cy="185" r="2.1500000000000004" fill="#ffffff" opacity="1.0" />
<circle cx="345" cy="185" r="3.25" fill="#ffffff" opacity="1.0" />
<circle cx="355" cy="185" r="3.8000000000000003" fill="#ffffff" opacity="1.0" />
<circle cx="365" cy="185" r="2.7" fill="#ffffff" opacity="1.0" />
<circle cx="375" cy="185" r="1.6" fill="#ffffff" opacity="1.0" />
<circle cx="305" cy="195" r="1.05" fill="#ffffff" opacity="1.0" />
<circle cx="315" cy="195" r="1.6" fill="#ffffff" opacity="1.0" />
<circle cx="325" cy="195" r="2.1500000000000004" fill="#ffffff" opacity="1.0" />
<circle cx="335" cy="195" r="2.7" fill="#ffffff" opacity="1.0" />
<circle cx="345" cy="195" r="2.1500000000000004" fill="#ffffff" opacity="1.0" />
<circle cx="355" cy="195" r="1.05" fill="#ffffff" opacity="1.0" />
<circle cx="305" cy="205" r="1.05" fill="#ffffff" opacity="1.0" />
<circle cx="315" cy="205" r="1.6" fill="#ffffff" opacity="1.0" />
<circle cx="325" cy="205" r="1.6" fill="#ffffff" opacity="1.0" />
<circle cx="335" cy="205" r="1.05" fill="#ffffff" opacity="1.0" />
</svg>